<svg width="307" height="117" viewBox="13 0 307 117" fill="none" xmlns="http://www.w3.org/2000/svg">
<path d="M68.8819 5.45114C82.1444 5.45114 94.2477 9.96494 103.754 17.4731C104.403 17.1602 105.145 17.0263 105.934 17.0263C109.087 17.0264 111.638 19.4843 111.638 22.5233C111.638 25.5623 109.087 28.0202 105.934 28.0203C102.78 28.0203 100.23 25.5623 100.23 22.5233C100.23 21.8976 100.369 21.272 100.555 20.7357C96.8912 17.8754 92.8567 15.5514 88.4977 13.7637C82.2838 11.261 75.6987 9.96497 68.8819 9.96497C62.0651 9.96498 55.4802 11.2163 49.2663 13.7637C43.2842 16.2217 37.9051 19.7078 33.2678 24.177C28.6306 28.6014 25.0134 33.8303 22.5093 39.5954C19.9125 45.5841 18.5677 51.9304 18.5677 58.5C18.5677 65.0697 19.8661 71.4159 22.5093 77.4046C25.0598 83.1697 28.6769 88.3539 33.3141 92.823C37.905 97.2922 43.3308 100.778 49.3128 103.236C55.5267 105.739 62.1117 107.035 68.9284 107.035C75.7451 107.035 82.33 105.784 88.544 103.236C94.526 100.778 99.9052 97.2922 104.542 92.823C105.609 91.7504 107.649 89.5159 107.649 89.5159C108.067 88.9349 108.763 88.5775 109.551 88.5775C110.803 88.5776 111.869 89.6054 111.916 90.8567C111.916 91.4376 111.638 92.0186 111.22 92.4208C101.111 104.13 85.9471 111.549 68.9284 111.549C38.5079 111.549 13.8841 87.8176 13.884 58.5C13.884 29.1824 38.5078 5.45119 68.8819 5.45114ZM62.5422 22.6106C67.1872 21.6097 72.0024 21.5464 76.6342 22.4278C77.3013 22.556 77.8291 23.0742 77.9715 23.7432C78.1132 24.4123 77.843 25.1027 77.2862 25.4931C66.567 33.0192 61.4084 46.1968 64.1438 59.068C66.8791 71.9369 76.9411 81.8301 89.7787 84.2729C90.4458 84.3991 90.9736 84.9166 91.1157 85.5863C91.2574 86.2549 90.9883 86.9458 90.4301 87.3377C86.5294 90.0767 82.1785 91.9777 77.4996 92.9872C75.0247 93.5201 72.498 93.7907 69.9908 93.7907H69.9871C53.2756 93.7893 38.6022 81.8219 35.0983 65.3335C33.1004 55.9346 34.855 46.3144 40.0382 38.2457C45.2218 30.175 53.2145 24.6231 62.5422 22.6106Z" fill="white"/>
<path d="M312 15.1568C316.418 15.1568 320 18.7328 320 23.1439V56.3701C320 60.7812 316.418 64.3571 312 64.3571H137.066C132.648 64.3571 129.066 60.7812 129.066 56.3701V23.1439C129.066 18.7328 132.648 15.1568 137.066 15.1568H312ZM179.461 26.8712V43.5447C179.461 45.3189 179.882 46.8912 180.724 48.2611C181.567 49.6226 182.751 50.6954 184.277 51.4793C185.803 52.255 187.588 52.6428 189.631 52.6428C191.683 52.6428 193.472 52.255 194.998 51.4793C196.525 50.6954 197.709 49.6226 198.551 48.2611C199.394 46.8912 199.815 45.3189 199.815 43.5447V26.8712H195.937V43.2353C195.937 44.3823 195.682 45.4014 195.174 46.2926C194.673 47.1839 193.948 47.8854 192.997 48.397C192.054 48.9004 190.933 49.1521 189.631 49.1521C188.339 49.1521 187.221 48.9004 186.279 48.397C185.336 47.8854 184.606 47.1838 184.089 46.2926C183.581 45.4015 183.326 44.3823 183.326 43.2353V26.8712H179.461ZM152.53 26.8712V52.2218H168.005V48.9293H156.396V26.8712H152.53ZM212.481 26.8712V52.2218H216.347V33.6295H216.584L229.608 52.2218H233.161V26.8712H229.332V45.4882H229.095L216.059 26.8712H212.481ZM253.126 26.8712L243.906 52.2218H248.01L250.356 45.5129H260.366L262.709 52.2218H266.813L257.593 26.8712H253.126ZM277.558 26.8712V52.2218H281.424V42.6288H286.678C286.762 42.6288 286.845 42.6273 286.927 42.6262L292.133 52.2218H296.536L290.866 41.9759C291.128 41.8784 291.38 41.7704 291.62 41.6509C292.938 40.999 293.922 40.087 294.572 38.9153C295.231 37.7352 295.561 36.3696 295.561 34.8182C295.561 33.2586 295.235 31.8845 294.585 30.6963C293.934 29.4997 292.95 28.5629 291.633 27.8862C290.323 27.2096 288.676 26.8712 286.691 26.8712H277.558ZM255.466 31.476L259.243 42.2947H251.482L255.266 31.476H255.466ZM286.278 30.1516C287.554 30.1516 288.584 30.3414 289.368 30.721C290.16 31.0923 290.74 31.6287 291.107 32.3301C291.482 33.0315 291.67 33.861 291.67 34.8182C291.67 35.7672 291.486 36.5801 291.12 37.2567C290.753 37.9333 290.173 38.4489 289.381 38.8037C288.597 39.1585 287.579 39.3362 286.328 39.3362H281.424V30.1516H286.278Z" fill="white"/>
<path d="M241.142 76.0716C242.879 76.0716 244.411 76.3687 245.738 76.9631C247.074 77.5575 248.126 78.3759 248.894 79.4181C249.662 80.4522 250.063 81.6411 250.096 82.9847H246.364C246.231 81.8284 245.68 80.9327 244.711 80.2976C243.743 79.6543 242.524 79.3328 241.055 79.3328C240.003 79.3328 239.093 79.4955 238.325 79.8212C237.557 80.1387 236.96 80.5786 236.534 81.1404C236.117 81.6941 235.908 82.3252 235.908 83.0337C235.908 83.628 236.05 84.141 236.334 84.5726C236.626 85.0041 237.006 85.3666 237.473 85.6597C237.949 85.9447 238.458 86.1848 239.001 86.3802C239.544 86.5674 240.065 86.7221 240.566 86.8443L243.071 87.4794C243.889 87.6748 244.728 87.9396 245.588 88.2735C246.448 88.6073 247.245 89.0469 247.979 89.5924C248.714 90.1379 249.307 90.8139 249.758 91.62C250.217 92.4261 250.447 93.3911 250.447 94.5148C250.447 95.9316 250.071 97.1897 249.319 98.289C248.576 99.3882 247.495 100.255 246.076 100.89C244.665 101.526 242.958 101.843 240.954 101.843C239.034 101.843 237.373 101.546 235.97 100.951C234.568 100.357 233.47 99.5144 232.677 98.4233C231.884 97.3241 231.446 96.0211 231.362 94.5148H235.244C235.319 95.4186 235.62 96.1719 236.146 96.7744C236.68 97.3688 237.361 97.8125 238.187 98.1057C239.022 98.3906 239.936 98.5331 240.929 98.5331C242.023 98.5331 242.996 98.3662 243.847 98.0323C244.707 97.6903 245.383 97.218 245.876 96.6154C246.368 96.0048 246.615 95.2924 246.615 94.4781C246.615 93.7371 246.398 93.1304 245.963 92.6582C245.538 92.1859 244.957 91.7951 244.223 91.4856C243.496 91.1762 242.674 90.9033 241.756 90.6672L238.725 89.8611C236.672 89.3155 235.044 88.5136 233.842 87.455C232.648 86.3965 232.051 84.9959 232.051 83.2534C232.051 81.8122 232.452 80.5542 233.253 79.4794C234.055 78.4046 235.14 77.5698 236.509 76.9754C237.878 76.3728 239.423 76.0716 241.142 76.0716ZM180.106 76.4136C181.926 76.4137 183.433 76.7068 184.626 77.2931C185.82 77.8712 186.713 78.6568 187.306 79.6502C187.899 80.6354 188.195 81.747 188.195 82.9847C188.195 84.0269 187.999 84.9065 187.607 85.623C187.214 86.3314 186.689 86.9014 186.029 87.333C185.378 87.7564 184.66 88.0657 183.875 88.2611V88.5055C184.727 88.5462 185.557 88.8149 186.367 89.3116C187.185 89.8002 187.861 90.4965 188.396 91.4003C188.93 92.3041 189.197 93.4032 189.197 94.6978C189.197 95.9762 188.888 97.1245 188.27 98.1423C187.661 99.1519 186.718 99.954 185.44 100.548C184.163 101.135 182.531 101.428 180.544 101.428H170.714V76.4136H180.106ZM221.827 101.428H217.72L215.375 94.8078H205.354L203.006 101.428H198.898L208.127 76.4136H212.598L221.827 101.428ZM278.202 79.6625H265.993V87.284H277.363V90.5208H265.993V98.179H278.352V101.428H262.123V76.4136H278.202V79.6625ZM174.583 98.191H180.168C182.022 98.191 183.349 97.8411 184.151 97.1408C184.952 96.4406 185.353 95.5652 185.353 94.5148C185.353 93.725 185.148 93.0003 184.739 92.3407C184.33 91.6812 183.746 91.156 182.986 90.7652C182.235 90.3743 181.341 90.1788 180.306 90.1788H174.583V98.191ZM206.481 91.6323H214.25L210.469 80.9573H210.269L206.481 91.6323ZM174.583 87.2353H179.768C180.636 87.2353 181.416 87.0723 182.109 86.7466C182.811 86.4209 183.366 85.965 183.775 85.3787C184.192 84.7843 184.401 84.0839 184.401 83.2777C184.401 82.2437 184.029 81.3765 183.286 80.6763C182.543 79.976 181.404 79.6258 179.868 79.6258H174.583V87.2353Z" fill="white"/>
</svg>